<svg xmlns="http://www.w3.org/2000/svg" version="1.1" xmlns:xlink="http://www.w3.org/1999/xlink" viewBox="0 0 200 200" width="200" height="200"><rect width="200" height="200" fill="url('#gradient')"></rect><defs><linearGradient id="gradient" gradientTransform="rotate(45 0.5 0.5)"><stop offset="0%" stop-color="#f7ff58"></stop><stop offset="100%" stop-color="#8778b6"></stop></linearGradient></defs><g><g fill="#17314b" transform="matrix(1.741623994147769,0,0,1.741623994147769,5.131083618242904,109.52543273875551)" stroke="#0e5278" stroke-width="0.4"><path d="M10.03-8.30L10.03-5.66L4.50-5.66L4.50 0L1.07 0L1.07-14.22L10.59-14.22L10.59-11.57L4.50-11.57L4.50-8.30L10.03-8.30ZM21.67-5.36L21.67-5.21Q21.67-2.74 20.56-1.27Q19.45 0.20 17.57 0.20L17.57 0.20Q16.11 0.20 15.18-0.87L15.18-0.87L15.18 4.06L11.88 4.06L11.88-10.57L14.96-10.57L15.06-9.59Q16.01-10.76 17.55-10.76L17.55-10.76Q19.50-10.76 20.59-9.32Q21.67-7.88 21.67-5.36L21.67-5.36ZM18.38-5.06L18.38-5.41Q18.38-8.22 16.74-8.22L16.74-8.22Q15.57-8.22 15.18-7.38L15.18-7.38L15.18-3.22Q15.61-2.34 16.76-2.34L16.76-2.34Q18.33-2.34 18.38-5.06L18.38-5.06ZM26.59-15L26.59 0L23.29 0L23.29-15L26.59-15ZM39.93-14.22L39.93-11.57L35.66-11.57L35.66 0L32.24 0L32.24-11.57L28.05-11.57L28.05-14.22L39.93-14.22ZM48.83 0L45.54 0Q45.36-0.32 45.22-0.95L45.22-0.95Q44.32 0.20 42.69 0.20L42.69 0.20Q41.19 0.20 40.15-0.71Q39.10-1.61 39.10-2.98L39.10-2.98Q39.10-4.70 40.37-5.58Q41.64-6.46 44.06-6.46L44.06-6.46L45.08-6.46L45.08-7.01Q45.08-8.47 43.82-8.47L43.82-8.47Q42.65-8.47 42.65-7.31L42.65-7.31L39.36-7.31Q39.36-8.85 40.66-9.80Q41.96-10.76 43.98-10.76Q46.01-10.76 47.18-9.78Q48.35-8.79 48.38-7.07L48.38-7.07L48.38-2.39Q48.40-0.94 48.83-0.17L48.83-0.17L48.83 0ZM43.48-2.15L43.48-2.15Q44.09-2.15 44.50-2.41Q44.90-2.68 45.08-3.01L45.08-3.01L45.08-4.70L44.12-4.70Q42.40-4.70 42.40-3.15L42.40-3.15Q42.40-2.71 42.71-2.43Q43.01-2.15 43.48-2.15ZM60.01-5.36L60.01-5.20Q60.01-2.60 58.94-1.20Q57.86 0.20 55.91 0.20L55.91 0.20Q54.30 0.20 53.31-1.08L53.31-1.08L53.17 0L50.22 0L50.22-15L53.52-15L53.52-9.72Q54.43-10.76 55.89-10.76L55.89-10.76Q57.86-10.76 58.94-9.35Q60.01-7.93 60.01-5.36L60.01-5.36ZM56.71-5.40L56.71-5.40Q56.71-6.92 56.30-7.57Q55.90-8.22 55.06-8.22L55.06-8.22Q53.95-8.22 53.52-7.37L53.52-7.37L53.52-3.17Q53.94-2.33 55.08-2.33L55.08-2.33Q56.24-2.33 56.55-3.47L56.55-3.47Q56.71-4.02 56.71-5.40ZM64.93-15L64.93 0L61.63 0L61.63-15L64.93-15ZM72.07 0.20L72.07 0.20Q69.64 0.20 68.13-1.25Q66.63-2.71 66.63-5.03L66.63-5.03L66.63-5.30Q66.63-6.92 67.23-8.16Q67.83-9.40 68.98-10.08Q70.14-10.76 71.72-10.76L71.72-10.76Q73.95-10.76 75.23-9.38Q76.52-8.00 76.52-5.53L76.52-5.53L76.52-4.25L69.98-4.25Q70.16-3.36 70.75-2.85Q71.35-2.34 72.29-2.34L72.29-2.34Q73.86-2.34 74.74-3.44L74.74-3.44L76.24-1.66Q75.63-0.81 74.50-0.31Q73.37 0.20 72.07 0.20ZM71.70-8.22L71.70-8.22Q70.25-8.22 69.98-6.31L69.98-6.31L73.30-6.31L73.30-6.56Q73.32-7.35 72.90-7.79Q72.48-8.22 71.70-8.22ZM83.61-4.82L81.43-4.82L81.43 0L78.00 0L78.00-14.22L83.67-14.22Q85.30-14.22 86.56-13.62Q87.81-13.02 88.50-11.91Q89.19-10.80 89.19-9.39L89.19-9.39Q89.19-7.31 87.70-6.07Q86.21-4.82 83.61-4.82L83.61-4.82ZM81.43-11.57L81.43-7.47L83.67-7.47Q84.67-7.47 85.19-7.97Q85.71-8.47 85.71-9.38L85.71-9.38Q85.71-10.37 85.18-10.97Q84.64-11.56 83.71-11.57L83.71-11.57L81.43-11.57ZM97.31-10.64L97.26-7.59L96.17-7.67Q94.62-7.67 94.18-6.69L94.18-6.69L94.18 0L90.89 0L90.89-10.57L93.97-10.57L94.08-9.21Q94.91-10.76 96.40-10.76L96.40-10.76Q96.92-10.76 97.31-10.64L97.31-10.64ZM97.69-4.82L97.68-5.38Q97.68-6.96 98.29-8.20Q98.91-9.43 100.06-10.10Q101.21-10.76 102.76-10.76L102.76-10.76Q105.14-10.76 106.50-9.29Q107.87-7.82 107.87-5.29L107.87-5.29L107.87-5.18Q107.87-2.71 106.50-1.25Q105.13 0.20 102.78 0.20L102.78 0.20Q100.53 0.20 99.16-1.16Q97.79-2.51 97.69-4.82L97.69-4.82ZM100.98-5.77L100.97-5.18Q100.97-3.71 101.43-3.03Q101.88-2.34 102.78-2.34L102.78-2.34Q104.54-2.34 104.58-5.05L104.58-5.05L104.58-5.38Q104.58-8.22 102.76-8.22L102.76-8.22Q101.11-8.22 100.98-5.77L100.98-5.77Z"></path></g></g><style>@media (prefers-color-scheme: light) { :root { filter: none; } }
@media (prefers-color-scheme: dark) { :root { filter: none; } }
</style></svg>